# AST/ASF file generated using VICON BodyLanguage
# -----------------------------------------------
:version 1.10
:name VICON
:units
  mass 1.0
  length 0.45
  angle deg
:documentation
   .ast/.asf automatically generated from VICON data using
   VICON BodyBuilder and BodyLanguage model FoxedUp or BRILLIANT.MOD
:root
   order TX TY TZ RX RY RZ
   axis XYZ
   position 0 0 0  
   orientation 0 0 0 
:bonedata
  begin
     id 1 
     name lhipjoint
     direction 0.734343 -0.627749 0.258209 
     length 2.5437 
     axis 0 0 0  XYZ
  end
  begin
     id 2 
     name lfemur
     direction 0.34202 -0.939693 0  
     length 6.7391  
     axis 0 0 20  XYZ
    dof rx ry rz
    limits (-160.0 20.0)
           (-70.0 70.0)
           (-60.0 70.0)
  end
  begin
     id 3 
     name ltibia
     direction 0.34202 -0.939693 0   
     length 7.21536   
     axis 0 0 20   XYZ
    dof rx
    limits (-10.0 170.0)
  end
  begin
     id 4 
     name lfoot
     direction 0.0489572 -0.134509 0.989702   
     length 1.61313   
     axis -90 7.62852e-016 20   XYZ
    dof rx rz
    limits (-45.0 90.0)
           (-70.0 20.0)
  end
  begin
     id 5 
     name ltoes
     direction 1.53451e-011 -4.21692e-011 1   
     length 0.823104   
     axis -90 7.62852e-016 20   XYZ
    dof rx
    limits (-90.0 20.0)
  end
  begin
     id 6 
     name rhipjoint
     direction -0.746398 -0.615468 0.253157   
     length 2.59446  
     axis 0 0 0  XYZ 
  end
  begin
     id 7 
     name rfemur
     direction -0.34202 -0.939693 0   
     length 6.7075   
     axis 0 0 -20   XYZ
    dof rx ry rz
    limits (-160.0 20.0)
           (-70.0 70.0)
           (-70.0 60.0)
  end
  begin
     id 8 
     name rtibia
     direction -0.34202 -0.939693 0   
     length 7.27262   
     axis 0 0 -20   XYZ
    dof rx
    limits (-10.0 170.0)
 end
 begin
     id 9 
     name rfoot
     direction -0.0455203 -0.125066 0.991104   
     length 1.91095  
     axis -90 -7.62852e-016 -20   XYZ
    dof rx rz
    limits (-45.0 90.0)
           (-20.0 70.0)
  end
  begin
     id 10 
     name rtoes
     direction -1.53601e-011 -4.21913e-011 1   
     length 0.969037   
     axis -90 -7.62852e-016 -20   XYZ
    dof rx
    limits (-90.0 20.0)
  end
  begin
     id 11 
     name lowerback
     direction 0.0181546 0.999122 -0.0377542   
     length 1.99916   
     axis 0 0 0   XYZ
    dof rx ry rz
    limits (-20.0 45.0)
           (-30.0 30.0)
           (-30.0 30.0)
  end
  begin
     id 12 
     name upperback
     direction 0.0203486 0.99589 0.0882534   
     length 1.951   
     axis 0 0 0   XYZ
    dof rx ry rz
    limits (-20.0 45.0)
           (-30.0 30.0)
           (-30.0 30.0)
  end
  begin
     id 13 
     name thorax
     direction 0.0131685 0.994241 0.106355   
     length 1.97461   
     axis 0 0 0   XYZ
    dof rx ry rz
    limits (-20.0 45.0)
           (-30.0 30.0)
           (-30.0 30.0)
  end
  begin
     id 14 
     name lowerneck
     direction -0.0281395 0.999325 0.023617   
     length 1.7959   
     axis 0 0 0   XYZ
    dof rx ry rz
    limits (-20.0 45.0)
           (-30.0 30.0)
           (-30.0 30.0)
  end
  begin
     id 15 
     name upperneck
     direction 0.0288721 0.991984 -0.123019   
     length 1.79917   
     axis 0 0 0   XYZ
    dof rx ry rz
    limits (-20.0 45.0)
           (-30.0 30.0)
           (-30.0 30.0)
  end
  begin
     id 16
     name head
     direction 0.0133797 0.998944 -0.0439492  
     length 1.80902  
     axis 0 0 0   XYZ
    dof rx ry rz
    limits (-20.0 45.0)
           (-30.0 30.0)
           (-30.0 30.0)
  end
  begin
     id 17 
     name lclavicle
     direction 0.919195 0.377107 0.113449  
     length 3.17815  
     axis 0 0 0   XYZ
    dof ry rz
    limits (-20.0 10.0)
           (0.0 20.0)
  end
  begin
     id 18 
     name lhumerus
     direction 1 -4.48959e-011 2.13129e-027   
     length 4.84137   
     axis 180 -30 -90   XYZ
    dof rx ry rz
    limits (-60.0 90.0)
           (-90.0 90.0)
           (-90.0 90.0)
  end
  begin
     id 19
     name lradius
     direction 1 -4.48957e-011 -6.30627e-028   
     length 3.2452   
     axis 180 -30 -90   XYZ
    dof rx
    limits (-10.0 170.0)
  end
  begin
     id 20
     name lwrist
     direction 1 -4.4901e-011 9.13299e-027   
     length 1.6226   
     axis -6.84618e-015 90 90   XYZ
    dof ry
    limits (-180.0 0.0)
 end
  begin
     id 21 
     name lhand
     direction 1 -4.48816e-011 1.82293e-026   
     length 0.521221   
     axis -1.16502e-014 90 90   XYZ
    dof rx rz
    limits (-90.0 90.0)
           (-45.0 45.0)
  end
  begin
     id 22 
     name lfingers
     direction 1 -4.49108e-011 3.65687e-026   
     length 0.420221   
     axis -2.33008e-014 90 90   XYZ
    dof rx
    limits (0.0 90.0)
  end
  begin
     id 23
     name lthumb
     direction 0.707107 -6.34943e-011 0.707107   
     length 0.603356   
     axis -90 45 5.69224e-014   XYZ
    dof rx rz
    limits (-45.0 45.0)
           (-45.0 45.0)
  end
  begin
     id 24 
     name rclavicle
     direction -0.90847 0.38596 0.160368   
     length 3.12973  
     axis 0 0 0   XYZ 
    dof ry rz
    limits (-10.0 20.0)
           (-20.0 0.0)
  end
  begin
     id 25 
     name rhumerus
     direction -1 -4.48974e-011 4.47268e-028  
     length 4.72284   
     axis 180 30 90   XYZ
    dof rx ry rz
    limits (-90.0 60.0)
           (-90.0 90.0)
           (-90.0 90.0)
  end
  begin
     id 26 
     name rradius
     direction -1 -4.48969e-011 3.43203e-027   
     length 3.23459   
     axis 180 30 90   XYZ
    dof rx
    limits (-10.0 170.0)
  end
  begin
     id 27 
     name rwrist
     direction -1 -4.48969e-011 9.12911e-027   
     length 1.6173   
     axis -6.84618e-015 -90 -90   XYZ
    dof ry
    limits (-180.0 0.0)
  end
  begin
     id 28
     name rhand
     direction -1 -4.49194e-011 1.83006e-026   
     length 0.307416   
     axis -1.16502e-014 -90 -90   XYZ
    dof rx rz
    limits (-90.0 90.0)
           (-45.0 45.0)
  end
  begin
     id 29
     name rfingers
     direction -1 -4.48423e-011 3.63103e-026   
     length 0.247847   
     axis -2.33008e-014 -90 -90   XYZ
    dof rx
    limits (0.0 90.0)
  end
  begin
     id 30
     name rthumb
     direction -0.707107 -6.34802e-011 0.707107   
     length 0.35586   
     axis -90 -45 -5.69224e-014   XYZ
    dof rx rz
    limits (-45.0 45.0)
           (-45.0 45.0)
  end
:hierarchy
  begin
    root lhipjoint rhipjoint lowerback
    lhipjoint lfemur
    lfemur ltibia
    ltibia lfoot
    lfoot ltoes
    rhipjoint rfemur
    rfemur rtibia
    rtibia rfoot
    rfoot rtoes
    lowerback upperback
    upperback thorax
    thorax lowerneck lclavicle rclavicle
    lowerneck upperneck
    upperneck head
    lclavicle lhumerus
    lhumerus lradius
    lradius lwrist
    lwrist lhand lthumb
    lhand lfingers
    rclavicle rhumerus
    rhumerus rradius
    rradius rwrist
    rwrist rhand rthumb
    rhand rfingers
  end

#!OML:ASF H:\Terrain\Patient Classification 1\Animal1\Tuesday\Animal1.ASF
:FULLY-SPECIFIED
:DEGREES
1297
root 13.235 16.5654 -12.3684 11.7326 -27.1278 1.58679
lowerback -3.62985 -0.402453 -0.129586
upperback -8.23203 -0.560148 1.26307
thorax -6.5126 -0.26098 1.40539
lowerneck -1.55353 1.2904 -4.65864
upperneck 20.669 0.0344642 10.4358
head 6.45329 0.379116 4.15694
rclavicle 4.22417e-015 -1.43125e-014
rhumerus -2.11447 -10.5967 -3.10865
rradius 22.5771
rwrist -10.8139
rhand -11.922 15.6531
rfingers 7.12502
rthumb 14.1322 -13.8462
lclavicle 4.22417e-015 -1.43125e-014
lhumerus -12.9896 12.1818 8.80653
lradius 34.9271
lwrist -32.6105
lhand -1.52648 50.3247
lfingers 7.12502
lthumb 24.1275 78.8275
rfemur -24.0569 28.6524 15.9132
rtibia 23.6537
rfoot -9.80203 -32.311
rtoes 6.12681
lfemur -14.0179 -33.5792 -19.5436
ltibia 16.3226
lfoot -16.0521 29.174
ltoes 10.4776
1298
root 13.2326 16.5637 -12.3664 11.7605 -27.1265 1.5552
lowerback -3.5807 -0.389371 -0.0871368
upperback -8.25973 -0.541906 1.26852
thorax -6.5714 -0.254085 1.3879
lowerneck -1.54065 1.29296 -4.7122
upperneck 20.6451 0.0364053 10.4793
head 6.44239 0.378733 4.17984
rclavicle -4.90004e-014 -1.43125e-014
rhumerus -2.27926 -9.65492 -2.94266
rradius 22.676
rwrist -11.5681
rhand -11.8254 15.7166
rfingers 7.12502
rthumb 14.2252 -13.7762
lclavicle -4.90004e-014 -1.43125e-014
lhumerus -13.1155 12.2181 8.91977
lradius 34.8218
lwrist -32.9396
lhand -1.63252 50.4744
lfingers 7.12502
lthumb 24.0258 78.9906
rfemur -24.0686 28.8115 15.9183
rtibia 23.6221
rfoot -9.64213 -32.5975
rtoes 5.59312
lfemur -14.0975 -33.7591 -19.4627
ltibia 16.3957
lfoot -16.3504 29.1731
ltoes 11.8298
1299
root 13.2303 16.5605 -12.3656 11.8489 -27.1425 1.47673
lowerback -3.56391 -0.398024 -0.0208273
upperback -8.2944 -0.551875 1.30022
thorax -6.61855 -0.262072 1.38484
lowerneck -1.65438 1.31841 -4.75742
upperneck 20.6895 0.0777169 10.4696
head 6.47302 0.398374 4.18922
rclavicle 1.56543e-014 -1.59028e-014
rhumerus -2.31806 -8.88912 -2.84167
rradius 22.7314
rwrist -12.1626
rhand -12.9391 14.0577
rfingers 7.12502
rthumb 13.1519 -15.5075
lclavicle 1.56543e-014 -1.59028e-014
lhumerus -13.2274 12.4326 8.89992
lradius 34.5647
lwrist -33.5913
lhand -1.42675 50.0332
lfingers 7.12502
lthumb 24.2231 78.5233
rfemur -24.1419 28.9014 15.9647
rtibia 23.626
rfoot -9.49548 -32.7099
rtoes 5.3504
lfemur -14.1893 -33.8107 -19.3198
ltibia 16.4085
lfoot -16.6478 29.1266
ltoes 12.4975
1300
root 13.2286 16.56 -12.3639 11.9263 -27.1216 1.43077
lowerback -3.56027 -0.414934 0.0530432
upperback -8.34248 -0.574198 1.30734
thorax -6.67264 -0.277663 1.35221
lowerneck -1.67426 1.34853 -4.93738
upperneck 20.6813 0.12206 10.5498
head 6.46801 0.412804 4.24919
rclavicle -1.5207e-014 1.27222e-014
rhumerus -2.35554 -8.47707 -2.79415
rradius 22.752
rwrist -12.4603
rhand -13.1079 13.9542
rfingers 7.12502
rthumb 12.9892 -15.6214
lclavicle -1.5207e-014 1.27222e-014
lhumerus -13.2919 12.5509 8.80435
lradius 34.3721
lwrist -34.1344
lhand -0.881593 49.7661
lfingers 7.12502
lthumb 24.7457 78.1855
rfemur -24.2181 28.8369 16.0059
rtibia 23.6723
rfoot -9.21154 -32.738
rtoes 4.4286
lfemur -14.2079 -33.8607 -19.2175
ltibia 16.344
lfoot -16.8948 29.0943
ltoes 12.7475
1301
root 13.2274 16.5612 -12.3631 11.9676 -27.1115 1.47443
lowerback -3.59359 -0.427606 0.032396
upperback -8.34395 -0.591583 1.30979
thorax -6.65453 -0.285087 1.36633
lowerneck -1.70839 1.35758 -5.17208
upperneck 20.5964 0.139964 10.6806
head 6.4423 0.413896 4.33193
rclavicle -3.11595e-014 -4.77083e-015
rhumerus -2.31069 -8.71253 -2.79454
rradius 22.6816
rwrist -12.3993
rhand -12.3481 14.7321
rfingers 7.12502
rthumb 13.7216 -14.7955
lclavicle -3.11595e-014 -4.77083e-015
lhumerus -13.3816 12.7853 8.76026
lradius 34.434
lwrist -34.445
lhand -0.462907 49.8639
lfingers 7.12502
lthumb 25.1469 78.2276
rfemur -24.3077 28.7789 15.9447
rtibia 23.6954
rfoot -9.09634 -32.625
rtoes 4.40974
lfemur -14.2449 -33.9265 -19.207
ltibia 16.3047
lfoot -16.9814 29.101
ltoes 13.119
1302
root 13.2259 16.5631 -12.3638 11.9609 -27.1083 1.59048
lowerback -3.62584 -0.442718 -0.0978978
upperback -8.29178 -0.612862 1.30014
thorax -6.57809 -0.287947 1.4284
lowerneck -1.82433 1.3437 -5.2335
upperneck 20.4976 0.133869 10.7123
head 6.43117 0.411321 4.3512
rclavicle -5.65542e-014 1.59028e-015
rhumerus -2.17694 -9.71709 -2.89305
rradius 22.5367
rwrist -11.8079
rhand -12.6802 13.3815
rfingers 7.12502
rthumb 13.4014 -16.1674
lclavicle -5.65542e-014 1.59028e-015
lhumerus -13.4354 13.3578 8.72167
lradius 34.5892
lwrist -34.7674
lhand -0.524923 49.7462
lfingers 7.12502
lthumb 25.0875 78.1182
rfemur -24.3618 28.7528 15.8166
rtibia 23.6793
rfoot -9.14666 -32.5075
rtoes 4.92847
lfemur -14.3138 -33.9305 -19.2741
ltibia 16.3163
lfoot -17.0523 28.9553
ltoes 13.7117
1303
root 13.2243 16.5625 -12.3615 11.9718 -27.0629 1.56527
lowerback -3.63936 -0.431357 -0.0592703
upperback -8.23373 -0.59786 1.27975
thorax -6.50849 -0.28366 1.38417
lowerneck -1.86644 1.28818 -5.20035
upperneck 20.4086 0.0534489 10.7646
head 6.41711 0.379081 4.35633
rclavicle 2.73329e-015 2.38542e-015
rhumerus -2.17008 -10.9718 -2.9558
rradius 22.4776
rwrist -11.1094
rhand -13.0781 12.0816
rfingers 7.12502
rthumb 13.0179 -17.4922
lclavicle 2.73329e-015 2.38542e-015
lhumerus -13.3652 13.9425 8.69969
lradius 34.7243
lwrist -35.0884
lhand -0.61311 49.413
lfingers 7.12502
lthumb 25.003 77.7968
rfemur -24.305 28.7232 15.8666
rtibia 23.6242
rfoot -9.01794 -32.5286
rtoes 4.98432
lfemur -14.3263 -33.8958 -19.2542
ltibia 16.3831
lfoot -17.1388 28.8041
ltoes 14.0244
1304
root 13.222 16.5617 -12.3578 12.0656 -27.0464 1.37301
lowerback -3.65541 -0.412542 0.153434
upperback -8.22281 -0.571052 1.29499
thorax -6.48983 -0.283114 1.28022
lowerneck -1.74201 1.23765 -5.12323
upperneck 20.3177 -0.0256681 10.7895
head 6.37335 0.343465 4.34288
rclavicle 4.48756e-014 -2.38542e-015
rhumerus -2.22454 -11.8861 -2.98214
rradius 22.5943
rwrist -10.7219
rhand -13.5178 11.8513
rfingers 7.12502
rthumb 12.5941 -17.749
lclavicle 4.48756e-014 -2.38542e-015
lhumerus -13.3447 14.1615 8.61638
lradius 34.9
lwrist -35.2373
lhand -0.344929 49.1651
lfingers 7.12502
lthumb 25.26 77.5129
rfemur -24.2455 28.8099 16.0401
rtibia 23.5188
rfoot -9.43856 -32.5007
rtoes 6.25293
lfemur -14.3752 -33.9127 -19.0691
ltibia 16.5253
lfoot -17.1993 28.9128
ltoes 13.609
1305
root 13.2194 16.5631 -12.3551 12.224 -27.0212 1.12195
lowerback -3.62447 -0.414627 0.358447
upperback -8.26804 -0.568806 1.37964
thorax -6.55769 -0.29184 1.25494
lowerneck -1.58104 1.21412 -5.08176
upperneck 20.1927 -0.0459379 10.7283
head 6.30786 0.326186 4.3092
rclavicle 9.01488e-014 3.26007e-014
rhumerus -2.19753 -12.5033 -2.97613
rradius 22.7305
rwrist -10.2425
rhand -13.1968 12.5571
rfingers 7.12502
rthumb 12.9035 -17.024
lclavicle 9.01488e-014 3.26007e-014
lhumerus -13.465 13.8537 8.48645
lradius 35.1379
lwrist -34.9942
lhand 0.00573382 49.1091
lfingers 7.12502
lthumb 25.5959 77.4091
rfemur -24.2251 28.867 16.2561
rtibia 23.419
rfoot -10.0275 -32.3583
rtoes 7.89494
lfemur -14.5014 -33.9942 -18.7748
ltibia 16.6589
lfoot -17.2016 29.1594
ltoes 12.8293
1306
root 13.2182 16.5637 -12.3513 12.3919 -26.9397 0.976757
lowerback -3.65072 -0.424127 0.49327
upperback -8.33167 -0.579075 1.43057
thorax -6.61217 -0.303909 1.23364
lowerneck -1.48149 1.19504 -5.06568
upperneck 20.0649 -0.0569455 10.6794
head 6.25134 0.314438 4.28517
rclavicle -2.04251e-014 1.51076e-014
rhumerus -2.19618 -13.1388 -2.93538
rradius 22.798
rwrist -9.4274
rhand -12.0586 11.4002
rfingers 7.12502
rthumb 14.0005 -18.1083
lclavicle -2.04251e-014 1.51076e-014
lhumerus -13.6344 13.1633 8.31858
lradius 35.4212
lwrist -34.4278
lhand 0.0479918 48.9955
lfingers 7.12502
lthumb 25.6363 77.2896
rfemur -24.2536 28.7162 16.3976
rtibia 23.3658
rfoot -9.65899 -32.2394
rtoes 7.97471
lfemur -14.6812 -34.0795 -18.5475
ltibia 16.7288
lfoot -17.049 29.324
ltoes 11.9221
